# xmcd CD database file
#
# Track frame offsets:
#	150
#	20211
#	34267
#	56142
#	69639
#	93673
#	110282
#	125505
#	145415
#	167443
#	189549
#	212133
#	224279
#	250057
#
# Disc length: 3658 seconds
#
# Revision: 0
# Processed by: cddbd v1.4PL0 Copyright (c) Steve Scherf et al.
# Submitted via: CDex 1.40Release
#
DISCID=d70e480e
DTITLE=La Cumbancha - Cumbanchero
DYEAR=2001
DGENRE=Blues
TTITLE0=Cumbanchero
TTITLE1=Si tu me dices ven.
TTITLE2=Burbujas de Amor
TTITLE3=Ebony and Ivory
TTITLE4=Chan Chan
TTITLE5=Avisame
TTITLE6=La Hormiguita
TTITLE7=Che Commandante
TTITLE8=Gunantanamera
TTITLE9=Yolanda
TTITLE10=El Cuato de Tula
TTITLE11=Cuando calienta el Sol
TTITLE12=Cachita
TTITLE13=Fiesta del Solar
EXTD=YEAR: 2001 ID3G: 0
EXTT0=
EXTT1=
EXTT2=
EXTT3=
EXTT4=
EXTT5=
EXTT6=
EXTT7=
EXTT8=
EXTT9=
EXTT10=
EXTT11=
EXTT12=
EXTT13=
PLAYORDER=
